<?xml version="1.0" encoding="utf-8"?>
<!-- Generator: Adobe Illustrator 27.0.0, SVG Export Plug-In . SVG Version: 6.00 Build 0)  -->
<svg version="1.1" id="Layer_1" xmlns="http://www.w3.org/2000/svg" xmlns:xlink="http://www.w3.org/1999/xlink" x="0px" y="0px"
     viewBox="0 0 2048 2048" style="enable-background:new 0 0 2048 2048;" xml:space="preserve">
<style type="text/css">
	.st0{fill:#FFFFFF;stroke-width:1;}
	.st1{fill:#FFFFFF;stroke:#FFFFFF;stroke-width:1;stroke-miterlimit:10;}
</style>
    <g>
	<polygon class="st0" points="353.02,42.04 353.02,66.4 66.4,66.4 66.4,353.02 42.04,353.02 42.04,42.04 	"/>
        <polygon class="st0" points="2005.96,42.04 2005.96,353.02 1981.6,353.02 1981.6,66.4 1694.98,66.4 1694.98,42.04 	"/>
        <polygon class="st0" points="2005.96,1694.98 2005.96,2005.96 1694.98,2005.96 1694.98,1981.6 1981.6,1981.6 1981.6,1694.98 	"/>
        <polygon class="st0" points="353.02,1981.6 353.02,2005.96 42.04,2005.96 42.04,1694.98 66.4,1694.98 66.4,1981.6 	"/>
</g>
    <polygon class="st0" points="1243.9,219.9 1226.67,237.12 1024,34.45 821.33,237.12 804.1,219.9 1024,0 "/>
    <polygon class="st0" points="2048,1024 1828.1,1243.9 1810.88,1226.67 2013.55,1024 1810.88,821.33 1828.1,804.1 "/>
    <polygon class="st0" points="1243.9,1828.1 1024,2048 804.1,1828.1 821.33,1810.88 1024,2013.55 1226.67,1810.88 "/>
    <polygon class="st0" points="237.12,1226.67 219.9,1243.9 0,1024 219.9,804.1 237.12,821.33 34.45,1024 "/>
    <path class="st1" d="M1267.14,1515.17c-63.48,51.03-95.22,76.54-140.47,93.26c-27.61,10.2-71.5,26.42-126.67,18.35
	c-48.1-7.03-86.51-29.85-120.86-50.26c-14.18-8.42-25.72-16.63-48.8-33.05c-105.98-75.39-134.2-115.07-146.18-134.35
	c-8.38-13.48-14.22-25.69-14.83-26.97c-11.9-24.77-20.23-51.41-24.89-80c-2.74-16.82-6.78-33.45-10.93-49.99
	c-0.71-2.85-4.72-5.22-7.68-7.02c-1.62-0.98-4.25-0.47-6.41-0.34c-17.28,1.03-28.59-7.29-34.01-23.09
	c-8.35-24.32-16.27-48.79-23.78-73.39c-11.94-39.13-23.62-78.35-34.95-117.66c-5.13-17.8-6.74-36.1-1.24-54.16
	c6.95-22.82,26.51-29.63,46.82-16.86c2.56,1.61,5.21,3.09,9.76,5.78c-0.57-4.67-0.61-7.52-1.29-10.21
	c-20.41-81.51-17.42-162.68,6.77-242.61c28.45-94.03,85.32-166.55,170.63-216.33c66.2-38.63,137.33-62.91,213.08-73.34
	c58.12-8.01,115.68-3.27,172.7,10.13c61.17,14.37,118.69,36.91,170.15,73.69c55.19,39.45,99.37,88.31,128.53,149.96
	c18.89,39.93,28.84,82.36,33.59,126.1c4.9,45.19,5.8,90.4,0.26,135.61c-0.72,5.84-1.01,11.82-2.48,17.48
	c-2.22,8.54,1.42,10.36,8.99,9.83c5.54-0.39,11.19-0.14,16.73,0.45c15.7,1.68,26.43,11.49,26.37,27.09
	c-0.05,14.42-1.59,29.2-5.04,43.19c-15.26,61.98-31.31,123.76-47.43,185.52c-2.33,8.94-6,17.67-10.08,25.99
	c-7.86,16.06-17.6,20.12-34.88,15.75c-2.04-0.52-4.17-0.67-7.32-1.16c-2.43,10.84-4.89,21.3-7.12,31.8
	c-11.14,52.5-27.41,103.11-57.21,148.29c-9.9,15.02-19.89,25.44-29.22,35.81C1305.62,1483.06,1285.2,1500.66,1267.14,1515.17z
	 M637.18,1232.52c4.18,20.91,8.57,39.91,11.73,59.11c13.3,80.76,51.84,147.07,116.71,196.4c43.8,33.31,90.15,63.33,136.09,93.73
	c17.48,11.57,36.11,22.49,55.72,29.52c49.99,17.91,100.62,10.95,150.11-3.08c38.18-10.83,67.97-37.44,99.94-59.41
	c21.87-15.03,42.23-32.3,63.04-48.85c27.22-21.65,53.15-44.55,73.7-73.06c24.37-33.81,37.71-72.24,48.89-111.71
	c8.22-29,16.44-58,25-88.2c3.2,2.55,5.55,4.43,7.9,6.31c10.71,8.58,20.7,7.78,28.52-3.53c4.87-7.04,9.1-14.93,11.69-23.06
	c5.08-15.93,8.93-32.25,13.07-48.47c10.02-39.33,19.76-78.73,29.9-118.02c5.29-20.49,10.07-40.95,8.44-62.38
	c-0.88-11.56-5.72-20.11-16.8-24.48c-10.65-4.2-19.93-1.74-28.18,5.86c-3.57,3.28-7.33,6.34-12.63,10.9
	c0.93-9.4,1.39-16.7,2.41-23.92c10.53-74.71,10.7-149.14-7.46-222.79c-11.76-47.7-30.96-92.23-63.12-130
	c-53.24-62.52-118.48-106.91-197.05-132.57c-101.3-33.08-202.71-39.17-305.44-8.12c-48.23,14.58-94.56,33.25-137.5,60.07
	c-87.24,54.48-141.1,132.19-162.94,232.32c-14.97,68.63-13.94,137.4-0.42,206.14c2.17,11.05,4.09,22.16,6.35,34.42
	c-12.49-7.68-23.14-14.96-34.45-20.98c-10.63-5.65-18.95-2.76-25.23,7.57c-7.48,12.3-6.95,25.78-3.45,38.82
	c13.32,49.64,26.38,99.38,41.27,148.55c7.32,24.16,17.88,47.41,28.07,70.59c4.62,10.51,16.97,12.83,27.04,7.12
	C630.42,1235.99,632.86,1234.8,637.18,1232.52z"/>
</svg>
