<?xml version="1.0" standalone="no"?>
<!DOCTYPE svg PUBLIC "-//W3C//DTD SVG 20010904//EN"
 "http://www.w3.org/TR/2001/REC-SVG-20010904/DTD/svg10.dtd">
<svg version="1.0" xmlns="http://www.w3.org/2000/svg"
 width="1042.000000pt" height="1042.000000pt" viewBox="0 0 1042.000000 1042.000000"
 preserveAspectRatio="xMidYMid meet">

<g transform="translate(0.000000,1042.000000) scale(0.100000,-0.100000)"
fill="white" stroke="none">
<path d="M4700 9374 c-248 -38 -553 -128 -752 -222 -364 -171 -634 -399 -838
-705 -252 -378 -374 -855 -357 -1392 7 -216 25 -361 77 -629 21 -110 42 -236
46 -279 l7 -78 -61 42 c-94 65 -179 67 -247 7 -78 -68 -109 -176 -109 -378 1
-80 6 -174 13 -210 38 -203 136 -664 157 -738 73 -250 166 -342 385 -377 l36
-5 12 -88 c22 -156 81 -430 116 -536 63 -194 296 -624 473 -873 386 -545 837
-883 1277 -959 71 -13 141 -15 325 -11 216 4 243 6 329 31 289 82 546 241 812
506 269 267 491 585 709 1015 132 258 167 373 229 737 18 102 35 174 43 179 7
5 25 9 39 9 39 0 128 29 168 54 85 54 148 154 195 306 31 101 139 619 162 775
41 275 -10 516 -122 586 -66 40 -180 16 -251 -53 -25 -24 -33 -28 -33 -15 0
42 33 258 55 359 50 232 67 381 72 638 6 263 -6 419 -47 623 -132 649 -499
1136 -1078 1426 -254 127 -534 213 -836 256 -142 20 -870 19 -1006 -1z m1090
-32 c524 -101 934 -296 1244 -592 279 -267 480 -639 561 -1043 44 -222 50
-290 50 -572 -1 -298 -10 -392 -70 -690 -41 -208 -47 -259 -85 -700 -83 -956
-157 -1521 -245 -1864 -27 -106 -52 -169 -114 -296 -408 -841 -937 -1398
-1491 -1573 -121 -38 -235 -52 -430 -52 -268 0 -406 28 -608 125 -493 236
-924 725 -1288 1460 -90 182 -109 228 -138 345 -41 163 -76 360 -115 655 -49
365 -73 595 -151 1460 -13 141 -34 297 -55 405 -49 250 -63 351 -77 557 -36
549 88 1076 345 1463 297 449 789 761 1402 890 216 45 276 49 730 46 382 -3
442 -6 535 -24z m-3024 -3221 c59 -27 124 -92 124 -124 0 -132 125 -1351 157
-1526 l6 -34 -56 6 c-62 6 -134 35 -185 74 -70 53 -130 175 -177 360 -43 172
-136 665 -144 764 -18 220 14 376 94 457 38 38 47 42 91 42 27 0 67 -9 90 -19z
m5047 1 c99 -66 145 -264 118 -510 -12 -108 -102 -569 -147 -752 -32 -131 -89
-254 -144 -314 -51 -56 -130 -94 -208 -102 l-58 -6 28 218 c31 245 76 683 112
1092 l24 274 33 35 c73 75 181 104 242 65z"/>
<path d="M4010 6642 c0 -4 152 -27 338 -51 185 -24 347 -47 360 -50 16 -5 52
-53 123 -166 l99 -159 -1 -176 c-1 -96 -4 -283 -8 -415 l-8 -240 -131 -361
-132 -361 0 -104 0 -104 152 -95 c147 -92 156 -95 282 -127 l131 -32 130 33
c127 32 135 35 280 128 l150 95 3 95 3 96 -136 374 -135 374 -10 406 -10 407
102 163 c56 90 102 164 103 166 1 1 163 24 359 49 196 26 356 51 356 55 0 4
-6 6 -12 3 -7 -2 -161 -23 -343 -46 -181 -23 -339 -45 -350 -49 -12 -5 -65
-79 -124 -174 l-103 -165 10 -408 10 -408 136 -375 c136 -375 136 -375 136
-463 l0 -88 -112 -72 c-62 -40 -130 -83 -151 -96 -21 -13 -97 -38 -168 -56
l-129 -33 -128 33 c-122 31 -132 35 -274 126 l-148 94 0 97 0 97 134 371 135
371 6 347 c3 191 8 372 11 402 l4 55 -106 170 c-58 94 -107 172 -109 173 -2 2
-153 23 -337 47 -183 25 -345 47 -360 49 -16 3 -28 2 -28 -2z"/>
<path d="M3846 5975 c-87 -51 -160 -96 -163 -99 -3 -3 72 -43 166 -90 l171
-86 175 0 175 0 176 67 c96 36 171 69 167 73 -4 5 -82 58 -172 119 l-164 111
-186 0 -186 -1 -159 -94z m682 -22 c89 -60 161 -111 162 -114 0 -3 -73 -34
-162 -68 l-163 -61 -172 0 -172 0 -160 83 -160 83 157 92 157 92 176 0 176 0
161 -107z"/>
<path d="M6005 6041 c-22 -15 -98 -67 -169 -116 -96 -65 -125 -90 -114 -96 8
-5 86 -36 173 -69 l158 -60 180 0 180 0 164 86 c91 47 161 90 156 94 -4 5 -78
49 -163 99 l-154 91 -186 0 -185 -1 -40 -28z m561 -73 c110 -64 151 -94 142
-100 -7 -5 -79 -42 -160 -83 l-148 -75 -170 0 -171 0 -162 61 c-89 34 -163 63
-165 64 -2 2 70 53 160 114 l163 111 178 0 178 0 155 -92z"/>
<path d="M5212 4877 l-2 -528 -120 82 -120 83 -103 -3 -102 -2 30 25 c46 39
62 41 107 11 22 -15 42 -25 44 -22 3 2 -17 18 -43 35 -53 34 -59 33 -133 -28
l-35 -29 116 -1 116 0 119 -80 c65 -44 122 -80 126 -80 5 0 62 36 128 80 l119
80 117 0 c65 0 114 3 110 7 -3 4 -51 6 -106 4 -55 -1 -100 -1 -100 2 0 8 79
57 91 57 7 0 27 -12 46 -26 19 -14 37 -24 39 -21 3 3 -15 19 -40 37 l-46 31
-170 -115 c-93 -64 -172 -116 -175 -116 -3 0 -6 235 -8 523 l-2 522 -3 -528z"/>
<path d="M4858 3542 c-109 -36 -198 -69 -198 -72 0 -4 93 -47 206 -95 l206
-89 141 0 142 0 207 90 c114 49 208 92 208 95 0 3 -92 35 -205 71 l-205 66
-75 -19 c-71 -18 -79 -19 -138 -4 -34 9 -69 18 -77 19 -8 2 -104 -26 -212 -62z
m832 -55 c8 -3 -208 -5 -480 -5 l-495 0 160 54 c88 30 169 54 180 54 11 0 52
-7 90 -16 66 -15 74 -15 145 3 l75 20 155 -52 c85 -29 162 -54 170 -58z m-140
-103 c-288 -124 -390 -125 -670 -4 -91 39 -167 73 -169 76 -2 2 225 4 505 4
l509 -1 -175 -75z"/>
</g>
</svg>
