<?xml version="1.0" encoding="utf-8"?>
<!-- Generator: Adobe Illustrator 27.0.0, SVG Export Plug-In . SVG Version: 6.00 Build 0)  -->
<svg version="1.1" id="Layer_1" xmlns="http://www.w3.org/2000/svg" xmlns:xlink="http://www.w3.org/1999/xlink" x="0px" y="0px"
     viewBox="0 0 2048 2048" style="enable-background:new 0 0 2048 2048;" xml:space="preserve">
<style type="text/css">
	.st0{fill:#FFFFFF;}
	.st1{fill:none;stroke:#FFFFFF;stroke-width:15;stroke-miterlimit:10;}
</style>
    <g>
	<polygon class="st0" points="353.02,42.04 353.02,66.4 66.4,66.4 66.4,353.02 42.04,353.02 42.04,42.04 	"/>
        <polygon class="st0" points="2005.96,42.04 2005.96,353.02 1981.6,353.02 1981.6,66.4 1694.98,66.4 1694.98,42.04 	"/>
        <polygon class="st0" points="2005.96,1694.98 2005.96,2005.96 1694.98,2005.96 1694.98,1981.6 1981.6,1981.6 1981.6,1694.98 	"/>
        <polygon class="st0" points="353.02,1981.6 353.02,2005.96 42.04,2005.96 42.04,1694.98 66.4,1694.98 66.4,1981.6 	"/>
</g>
    <g>
	<polygon class="st0" points="1243.9,219.9 1226.67,237.12 1024,34.45 821.33,237.12 804.1,219.9 1024,0 	"/>
        <polygon class="st0" points="2048,1024 1828.1,1243.9 1810.88,1226.67 2013.55,1024 1810.88,821.33 1828.1,804.1 	"/>
        <polygon class="st0" points="1243.9,1828.1 1024,2048 804.1,1828.1 821.33,1810.88 1024,2013.55 1226.67,1810.88 	"/>
        <polygon class="st0" points="237.12,1226.67 219.9,1243.9 0,1024 219.9,804.1 237.12,821.33 34.45,1024 	"/>
</g>
    <path class="st1" d="M1318.86,1619.65c-76.99,61.88-115.48,92.82-170.35,113.1c-33.48,12.37-86.71,32.04-153.61,22.25
	c-58.33-8.53-104.92-36.2-146.57-60.95c-17.19-10.21-31.19-20.17-59.18-40.08c-128.53-91.43-162.75-139.55-177.28-162.93
	c-10.16-16.35-17.25-31.16-17.99-32.7c-14.43-30.04-24.53-62.35-30.19-97.02c-3.33-20.39-8.23-40.56-13.26-60.62
	c-0.87-3.45-5.72-6.33-9.32-8.51c-1.96-1.19-5.16-0.56-7.78-0.41c-20.96,1.25-34.67-8.84-41.25-28
	c-10.13-29.49-19.74-59.17-28.84-89c-14.48-47.46-28.65-95.01-42.38-142.69c-6.22-21.59-8.18-43.78-1.5-65.68
	c8.43-27.67,32.15-35.94,56.78-20.44c3.11,1.96,6.32,3.75,11.84,7.01c-0.69-5.66-0.74-9.12-1.56-12.38
	c-24.75-98.85-21.12-197.29,8.2-294.22c34.5-114.03,103.47-201.98,206.92-262.35c80.28-46.84,166.54-76.29,258.41-88.94
	c70.48-9.71,140.29-3.97,209.43,12.28c74.18,17.43,143.94,44.76,206.35,89.36c66.93,47.84,120.51,107.1,155.87,181.86
	c22.9,48.42,34.97,99.88,40.73,152.93c5.95,54.8,7.04,109.63,0.31,164.45c-1.34,10.94-3.01,21.19-3.01,21.19
	c-1.91,6.89-3.83,13.78-5.74,20.67c3.3-2.63,8.89-6.42,16.65-8.75c4.53-1.36,14.49-4.2,26.25-0.44c3.11,0.99,13.98,4.64,20.68,15.27
	c4.43,7.03,5.36,14.02,5.34,18.57c-0.06,17.49-1.93,35.41-6.11,52.38c-18.51,75.16-37.97,150.08-57.52,224.98
	c-2.83,10.84-7.28,21.43-12.22,31.52c-9.54,19.48-21.35,24.4-42.3,19.1c-2.47-0.62-5.05-0.82-8.88-1.41
	c-2.95,13.15-5.93,25.83-8.63,38.56c-13.51,63.67-33.24,125.04-69.38,179.84c-12.01,18.21-24.12,30.85-35.43,43.43
	C1365.52,1580.71,1340.76,1602.04,1318.86,1619.65z"/>
</svg>
